<svg width="20" height="20" viewBox="0 0 24 24" fill="none"
    xmlns="http://www.w3.org/2000/svg">
    <path
        d="M3 6.5C3 5.67 3.67 5 4.5 5H9.2C9.7 5 10.16 5.25 10.45 5.65L11.4 7H19.5C20.33 7 21 7.67 21 8.5V17.5C21 18.33 20.33 19 19.5 19H4.5C3.67 19 3 18.33 3 17.5V6.5Z"
        fill="#7C5CFF"/>
    <path
        d="M3 9H21V17.5C21 18.33 20.33 19 19.5 19H4.5C3.67 19 3 18.33 3 17.5V9Z"
        fill="#6D4DE8"/>
    <path
        d="M12 15V10"
        stroke="#D8D0FF"
        stroke-width="1.5"
        stroke-linecap="round"/>
    <path
        d="M9.5 12.2L12 9.7L14.5 12.2"
        stroke="#D8D0FF"
        stroke-width="1.5"
        stroke-linecap="round"
        stroke-linejoin="round"/>
</svg>